HIERARCHY
ROOT Hips
{
	OFFSET 0.000000 0.000000 0.000000
	CHANNELS 6 Xposition Yposition Zposition Xrotation Yrotation Zrotation
	JOINT LeftUpLeg_virtual
	{
		OFFSET 0.000000 0.000000 0.000000
		CHANNELS 3 Xrotation Yrotation Zrotation
		JOINT LeftUpLeg
		{
			OFFSET 13.026900 -6.336304 -1.092800
			CHANNELS 3 Xrotation Yrotation Zrotation
			JOINT LeftLeg
			{
				OFFSET 0.524474 -46.096886 9.782700
				CHANNELS 3 Xrotation Yrotation Zrotation
				JOINT LeftFoot
				{
					OFFSET -0.524474 -53.427422 -12.948200
					CHANNELS 3 Xrotation Yrotation Zrotation
					JOINT LeftToeBase
					{
						OFFSET 0.192200 -14.009700 16.364100
						CHANNELS 3 Xrotation Yrotation Zrotation
						JOINT LeftToe_End
						{
							OFFSET -1.784700 -0.561700 9.474800
							CHANNELS 3 Xrotation Yrotation Zrotation
							End Site
							{
								OFFSET 0 0 0
							}
						}
					}
				}
			}
		}
	}
	JOINT RightUpLeg_virtual
	{
		OFFSET 0.000000 0.000000 0.000000
		CHANNELS 3 Xrotation Yrotation Zrotation
		JOINT RightUpLeg
		{
			OFFSET -12.883000 -6.336304 -1.092800
			CHANNELS 3 Xrotation Yrotation Zrotation
			JOINT RightLeg
			{
				OFFSET -0.524587 -46.096825 9.782800
				CHANNELS 3 Xrotation Yrotation Zrotation
				JOINT RightFoot
				{
					OFFSET 0.524587 -53.427383 -12.948300
					CHANNELS 3 Xrotation Yrotation Zrotation
					JOINT RightToeBase
					{
						OFFSET -0.192200 -14.009700 16.364100
						CHANNELS 3 Xrotation Yrotation Zrotation
						JOINT RightToe_End
						{
							OFFSET 1.784700 -0.561700 9.474800
							CHANNELS 3 Xrotation Yrotation Zrotation
							End Site
							{
								OFFSET 0 0 0
							}
						}
					}
				}
			}
		}
	}
	JOINT Spine_virtual
	{
		OFFSET 0.000000 0.000000 0.000000
		CHANNELS 3 Xrotation Yrotation Zrotation
		JOINT Spine
		{
			OFFSET 0.072000 7.257294 -0.789700
			CHANNELS 3 Xrotation Yrotation Zrotation
			JOINT Spine1
			{
				OFFSET 0.000000 12.508769 -0.658067
				CHANNELS 3 Xrotation Yrotation Zrotation
				JOINT Spine1_split
				{
					OFFSET 0.000000 12.508769 -0.658067
					CHANNELS 3 Xrotation Yrotation Zrotation
					JOINT Spine2
					{
						OFFSET 0.000000 12.508769 -0.658067
						CHANNELS 3 Xrotation Yrotation Zrotation
						JOINT Neck_virtual
						{
							OFFSET 0.000000 0.000000 0.000000
							CHANNELS 3 Xrotation Yrotation Zrotation
							JOINT Neck
							{
								OFFSET 0.000000 14.033295 7.520400
								CHANNELS 3 Xrotation Yrotation Zrotation
								JOINT Head
								{
									OFFSET 0.000000 8.198502 5.703100
									CHANNELS 3 Xrotation Yrotation Zrotation
									JOINT HeadTop_End
									{
										OFFSET 0.000000 17.760803 13.332701
										CHANNELS 3 Xrotation Yrotation Zrotation
										End Site
										{
											OFFSET 0 0 0
										}
									}
								}
							}
						}
						JOINT LeftShoulder_virtual
						{
							OFFSET 0.000000 0.000000 0.000000
							CHANNELS 3 Xrotation Yrotation Zrotation
							JOINT LeftShoulder
							{
								OFFSET 6.292450 5.785301 -0.669000
								CHANNELS 3 Xrotation Yrotation Zrotation
								JOINT LeftShoulder_split
								{
									OFFSET 6.292450 5.785301 -0.669000
									CHANNELS 3 Xrotation Yrotation Zrotation
									JOINT LeftArm
									{
										OFFSET 13.907140 -6.093903 1.965100
										CHANNELS 3 Xrotation Yrotation Zrotation
										JOINT LeftForeArm
										{
											OFFSET 34.140198 0.000000 0.000000
											CHANNELS 3 Xrotation Yrotation Zrotation
											JOINT LeftHand
											{
												OFFSET 40.960209 0.000000 0.000000
												CHANNELS 3 Xrotation Yrotation Zrotation
												End Site
												{
													OFFSET 0 0 0
												}
											}
										}
									}
								}
							}
						}
						JOINT RightShoulder_virtual
						{
							OFFSET 0.000000 0.000000 0.000000
							CHANNELS 3 Xrotation Yrotation Zrotation
							JOINT RightShoulder
							{
								OFFSET -6.292450 5.785301 -0.669000
								CHANNELS 3 Xrotation Yrotation Zrotation
								JOINT RightShoulder_split
								{
									OFFSET -6.292450 5.785301 -0.669000
									CHANNELS 3 Xrotation Yrotation Zrotation
									JOINT RightArm
									{
										OFFSET -13.907140 -6.093903 1.965100
										CHANNELS 3 Xrotation Yrotation Zrotation
										JOINT RightForeArm
										{
											OFFSET -34.140198 0.000000 0.000000
											CHANNELS 3 Xrotation Yrotation Zrotation
											JOINT RightHand
											{
												OFFSET -40.960209 0.000000 0.000000
												CHANNELS 3 Xrotation Yrotation Zrotation
												End Site
												{
													OFFSET 0 0 0
												}
											}
										}
									}
								}
							}
						}
					}
				}
			}
		}
	}
}
MOTION
Frames: 5
Frame Time: 0.03333333
-0.124610 92.234985 -5.852720 0.000000 0.000000 0.000000 -3.471005 -49.799148 3.560367 -25.253677 -0.297683 11.347332 52.259096 -1.433231 1.770048 -18.620692 7.279853 -11.966193 -1.755431 -0.864451 -5.744026 0.000000 0.000000 0.000000 -3.848239 -49.758642 3.752961 -34.558776 -17.858341 -27.896939 61.591798 10.214273 -8.217428 -17.817542 -26.611993 32.358038 4.841968 6.417748 -14.714915 0.000000 0.000000 0.000000 -3.923575 -45.227044 1.619551 13.838511 3.655841 -3.580340 -2.174660 -0.569050 -1.253167 0.058340 -0.251064 0.299788 0.000000 0.000000 0.000000 1.211912 1.104025 0.220092 9.436332 11.310858 0.212751 -10.996490 11.441848 -8.508414 0.000000 0.000000 0.000000 3.897567 -0.390078 0.233586 2.665396 6.610062 0.428761 -4.100911 -9.472566 -3.528701 -63.310383 2.454149 -48.344820 177.175121 -80.796767 173.461178 0.000000 0.000000 0.000000 2.420637 -0.664951 -0.153325 -1.982242 12.942208 -5.965105 -4.212413 -8.076079 4.240000 -52.959313 26.750894 85.524815 -123.617531 76.224856 130.616084 0.000000 0.000000 0.000000 
0.216471 91.394737 -4.272760 0.000000 0.000000 0.000000 -4.061735 -51.586520 3.360782 -27.073275 -0.399206 11.630181 53.595159 -1.038244 1.192935 -17.939864 8.532446 -11.846553 -2.165986 -0.698280 -6.229675 0.000000 0.000000 0.000000 -3.979684 -50.887635 3.765130 -34.366363 -17.107503 -28.245370 63.769262 10.450916 -8.499816 -19.247432 -26.625042 31.636466 6.856411 6.063996 -14.577118 0.000000 0.000000 0.000000 -4.375733 -46.162612 1.441455 14.300985 4.014360 -3.651166 -1.816543 -0.544629 -1.255207 0.037439 -0.267559 0.351394 0.000000 0.000000 0.000000 1.265349 1.053840 0.334701 9.103204 11.371253 0.691600 -12.035466 11.788904 -9.313484 0.000000 0.000000 0.000000 3.528228 -0.304370 0.161804 2.150112 6.658652 -0.321935 -3.187787 -11.660822 -1.840985 -64.408540 2.604548 -48.242941 170.293364 -81.040242 166.096909 0.000000 0.000000 0.000000 2.448534 -0.642077 -0.182659 -2.278523 13.057288 -5.788821 -2.397283 -7.544560 4.417290 -52.999806 28.115963 85.542054 -128.871818 75.071538 136.196622 0.000000 0.000000 0.000000 
0.702273 89.196152 -2.201815 0.000000 0.000000 0.000000 -4.641653 -53.422161 3.084002 -31.379528 -0.549281 12.960932 58.858472 -2.480585 0.797343 -16.272265 7.745627 -12.892964 -2.680886 -0.850454 -6.379036 0.000000 0.000000 0.000000 -3.981180 -52.482053 3.814411 -34.388920 -16.078103 -29.139394 66.178406 11.097035 -9.285411 -20.439428 -26.548771 31.902687 6.333241 6.015064 -14.336545 0.000000 0.000000 0.000000 -4.634340 -47.957098 1.381905 15.121848 5.063420 -3.133356 -1.355107 -0.451241 -1.320470 -0.023331 -0.203546 0.278268 0.000000 0.000000 0.000000 1.629634 1.051698 0.401307 8.336354 11.585643 1.223953 -13.891002 13.114166 -10.710851 0.000000 0.000000 0.000000 3.250791 -0.210838 0.028216 1.755564 6.168763 -1.423812 -1.408512 -11.949210 0.080819 -66.060893 3.100754 -47.273454 163.748376 -81.974148 158.455403 0.000000 0.000000 0.000000 2.262698 -0.619678 -0.179838 -2.648965 13.336330 -5.744279 -2.332443 -6.700608 3.967142 -51.275077 28.818409 84.484379 -135.203977 73.125289 142.462228 0.000000 0.000000 0.000000 
1.295646 85.955788 0.068834 0.000000 0.000000 0.000000 -5.019650 -55.025350 2.873049 -37.498879 -0.919282 15.267877 66.869376 -5.668608 1.126384 -13.235433 4.923202 -15.271946 -5.166616 -1.283127 -5.784102 0.000000 0.000000 0.000000 -3.899866 -54.379309 3.806860 -34.883764 -14.790049 -30.502105 68.114956 12.205674 -10.439128 -21.142490 -26.243844 32.988352 3.583949 6.238921 -14.170838 0.000000 0.000000 0.000000 -4.804377 -50.309080 1.296186 16.179682 6.660734 -2.163515 -0.823013 -0.260146 -1.516834 0.002306 -0.110203 0.149774 0.000000 0.000000 0.000000 2.247452 1.137002 0.356595 7.195828 11.941100 1.734893 -16.430606 15.446555 -12.398064 0.000000 0.000000 0.000000 3.087725 -0.075983 -0.227724 1.584475 5.460531 -2.741025 0.696451 -10.547569 1.692661 -67.246928 4.786889 -45.091724 160.328746 -82.622456 153.717779 0.000000 0.000000 0.000000 1.974799 -0.550874 -0.240231 -3.091867 13.709739 -5.964787 -3.617843 -5.392889 3.093228 -48.262001 28.584246 82.781538 -139.538552 71.225001 146.302133 0.000000 0.000000 0.000000 
2.083457 82.214279 2.688864 0.000000 0.000000 0.000000 -5.084803 -56.560346 2.819959 -43.718712 -1.422544 18.121404 74.843157 -9.022430 2.033587 -10.538696 1.232352 -17.089775 -10.162107 -2.026594 -4.527333 0.000000 0.000000 0.000000 -3.605729 -56.503293 3.896129 -36.155282 -13.197519 -32.292554 69.445532 13.735662 -11.755150 -21.447095 -25.567597 34.534143 1.255862 6.482815 -14.373472 0.000000 0.000000 0.000000 -4.761259 -52.935421 1.380347 17.356779 8.373856 -0.987300 -0.291492 0.012687 -1.865572 0.062468 -0.095015 0.046771 0.000000 0.000000 0.000000 3.031819 1.328060 0.143386 5.907153 12.409395 2.204025 -19.090544 18.474417 -14.129518 0.000000 0.000000 0.000000 3.023963 0.117559 -0.675881 1.567653 4.657925 -4.184293 2.221614 -9.251475 3.806548 -66.887954 8.709626 -41.337527 162.943889 -81.212131 155.123691 0.000000 0.000000 0.000000 1.728016 -0.374075 -0.418334 -3.662282 14.141139 -6.624051 -5.403080 -3.991401 2.243939 -44.890571 27.815773 81.190486 -141.744457 70.161807 147.661614 0.000000 0.000000 0.000000 
